G04*
G04 #@! TF.GenerationSoftware,Altium Limited,Altium Designer,21.1.1 (26)*
G04*
G04 Layer_Color=16711935*
%FSLAX25Y25*%
%MOIN*%
G70*
G04*
G04 #@! TF.SameCoordinates,71F490B5-E471-4577-894E-B108FF22964F*
G04*
G04*
G04 #@! TF.FilePolarity,Positive*
G04*
G01*
G75*
%ADD15C,0.01000*%
D15*
X139375Y184410D02*
X139400Y183401D01*
X139477Y182394D01*
X139604Y181392D01*
X139781Y180398D01*
X140008Y179414D01*
X140285Y178443D01*
X140611Y177487D01*
X140984Y176549D01*
X141404Y175631D01*
X141870Y174735D01*
X142381Y173864D01*
X142935Y173020D01*
X143531Y172204D01*
X144167Y171420D01*
X144842Y170669D01*
X145554Y169953D01*
X146301Y169274D01*
X147082Y168633D01*
X147894Y168033D01*
X148735Y167474D01*
X149603Y166959D01*
X150497Y166488D01*
X151412Y166063D01*
X152349Y165684D01*
X153303Y165354D01*
X154272Y165072D01*
X155255Y164839D01*
X156248Y164656D01*
X157249Y164523D01*
X158255Y164441D01*
X159265Y164410D01*
X159375Y439999D02*
X158366Y439974D01*
X157359Y439897D01*
X156357Y439770D01*
X155363Y439593D01*
X154379Y439365D01*
X153408Y439089D01*
X152452Y438763D01*
X151514Y438390D01*
X150596Y437970D01*
X149700Y437504D01*
X148829Y436993D01*
X147984Y436439D01*
X147169Y435843D01*
X146385Y435207D01*
X145634Y434532D01*
X144918Y433820D01*
X144239Y433073D01*
X143598Y432292D01*
X142998Y431480D01*
X142439Y430639D01*
X141924Y429771D01*
X141453Y428877D01*
X141028Y427961D01*
X140649Y427025D01*
X140319Y426071D01*
X140036Y425102D01*
X139804Y424119D01*
X139620Y423126D01*
X139488Y422125D01*
X139406Y421118D01*
X139375Y420109D01*
X493700Y419999D02*
X493675Y421008D01*
X493599Y422015D01*
X493471Y423017D01*
X493294Y424011D01*
X493067Y424995D01*
X492790Y425966D01*
X492464Y426922D01*
X492091Y427860D01*
X491671Y428778D01*
X491205Y429674D01*
X490694Y430545D01*
X490140Y431390D01*
X489544Y432205D01*
X488908Y432989D01*
X488233Y433740D01*
X487521Y434456D01*
X486774Y435135D01*
X485993Y435776D01*
X485181Y436376D01*
X484340Y436935D01*
X483472Y437450D01*
X482578Y437921D01*
X481663Y438346D01*
X480726Y438725D01*
X479772Y439055D01*
X478803Y439338D01*
X477820Y439571D01*
X476827Y439753D01*
X475826Y439886D01*
X474820Y439968D01*
X473810Y439999D01*
X473700Y164410D02*
X474710Y164435D01*
X475716Y164512D01*
X476718Y164639D01*
X477712Y164816D01*
X478696Y165044D01*
X479667Y165321D01*
X480623Y165646D01*
X481561Y166019D01*
X482479Y166439D01*
X483375Y166905D01*
X484246Y167416D01*
X485091Y167970D01*
X485906Y168566D01*
X486690Y169202D01*
X487441Y169877D01*
X488157Y170589D01*
X488836Y171336D01*
X489477Y172117D01*
X490077Y172929D01*
X490636Y173770D01*
X491151Y174639D01*
X491622Y175532D01*
X492047Y176448D01*
X492426Y177384D01*
X492757Y178338D01*
X493039Y179307D01*
X493271Y180290D01*
X493455Y181283D01*
X493587Y182284D01*
X493669Y183291D01*
X493700Y184300D01*
X493701Y419999D02*
X493701Y184300D01*
X159265Y164372D02*
X473700Y164372D01*
X139400Y184410D02*
X139400Y420109D01*
X159375Y440000D02*
X473810Y440000D01*
M02*
