G04*
G04 #@! TF.GenerationSoftware,Altium Limited,Altium Designer,21.1.1 (26)*
G04*
G04 Layer_Physical_Order=2*
G04 Layer_Color=16711680*
%FSLAX25Y25*%
%MOIN*%
G70*
G04*
G04 #@! TF.SameCoordinates,71F490B5-E471-4577-894E-B108FF22964F*
G04*
G04*
G04 #@! TF.FilePolarity,Positive*
G04*
G01*
G75*
%ADD46C,0.03000*%
G04:AMPARAMS|DCode=47|XSize=76.77mil|YSize=76.77mil|CornerRadius=19.19mil|HoleSize=0mil|Usage=FLASHONLY|Rotation=270.000|XOffset=0mil|YOffset=0mil|HoleType=Round|Shape=RoundedRectangle|*
%AMROUNDEDRECTD47*
21,1,0.07677,0.03839,0,0,270.0*
21,1,0.03839,0.07677,0,0,270.0*
1,1,0.03839,-0.01919,-0.01919*
1,1,0.03839,-0.01919,0.01919*
1,1,0.03839,0.01919,0.01919*
1,1,0.03839,0.01919,-0.01919*
%
%ADD47ROUNDEDRECTD47*%
%ADD48C,0.07677*%
%ADD49C,0.08268*%
%ADD50R,0.05906X0.05906*%
%ADD51C,0.05906*%
G04:AMPARAMS|DCode=52|XSize=55.12mil|YSize=55.12mil|CornerRadius=13.78mil|HoleSize=0mil|Usage=FLASHONLY|Rotation=270.000|XOffset=0mil|YOffset=0mil|HoleType=Round|Shape=RoundedRectangle|*
%AMROUNDEDRECTD52*
21,1,0.05512,0.02756,0,0,270.0*
21,1,0.02756,0.05512,0,0,270.0*
1,1,0.02756,-0.01378,-0.01378*
1,1,0.02756,-0.01378,0.01378*
1,1,0.02756,0.01378,0.01378*
1,1,0.02756,0.01378,-0.01378*
%
%ADD52ROUNDEDRECTD52*%
%ADD53C,0.05512*%
%ADD54C,0.06496*%
G04:AMPARAMS|DCode=55|XSize=62.99mil|YSize=62.99mil|CornerRadius=15.75mil|HoleSize=0mil|Usage=FLASHONLY|Rotation=270.000|XOffset=0mil|YOffset=0mil|HoleType=Round|Shape=RoundedRectangle|*
%AMROUNDEDRECTD55*
21,1,0.06299,0.03150,0,0,270.0*
21,1,0.03150,0.06299,0,0,270.0*
1,1,0.03150,-0.01575,-0.01575*
1,1,0.03150,-0.01575,0.01575*
1,1,0.03150,0.01575,0.01575*
1,1,0.03150,0.01575,-0.01575*
%
%ADD55ROUNDEDRECTD55*%
%ADD56C,0.06299*%
%ADD57C,0.19685*%
%ADD58R,0.08150X0.08150*%
%ADD59C,0.08150*%
%ADD60C,0.03150*%
%ADD61C,0.03000*%
%ADD62C,0.02362*%
%ADD63C,0.06000*%
G36*
X214500Y437000D02*
X456666Y437000D01*
X456857Y436538D01*
X456190Y435871D01*
X454719Y434078D01*
X453430Y432150D01*
X452337Y430104D01*
X451449Y427962D01*
X450776Y425742D01*
X450324Y423468D01*
X450096Y421160D01*
Y418840D01*
X450324Y416532D01*
X450776Y414258D01*
X451449Y412038D01*
X452337Y409896D01*
X453430Y407850D01*
X454719Y405922D01*
X456190Y404129D01*
X457830Y402489D01*
X459623Y401018D01*
X461551Y399729D01*
X463597Y398636D01*
X465739Y397748D01*
X467959Y397075D01*
X470233Y396623D01*
X472541Y396395D01*
X474861D01*
X477169Y396623D01*
X479443Y397075D01*
X481663Y397748D01*
X483805Y398636D01*
X485851Y399729D01*
X487779Y401018D01*
X489572Y402489D01*
X491212Y404129D01*
X492683Y405922D01*
X493128Y406587D01*
X493606Y406440D01*
X493000Y326500D01*
X475000D01*
X475000Y379500D01*
X475000D01*
X475000Y379500D01*
X474966Y380186D01*
X474699Y381532D01*
X474173Y382800D01*
X473411Y383941D01*
X472441Y384911D01*
X471300Y385673D01*
X470032Y386199D01*
X468686Y386466D01*
X468000Y386500D01*
X440361Y386500D01*
X440361Y386500D01*
X439688Y386467D01*
X438369Y386205D01*
X437127Y385690D01*
X436008Y384943D01*
X435057Y383992D01*
X434310Y382873D01*
X433795Y381631D01*
X433533Y380312D01*
X433500Y379639D01*
X433500Y335500D01*
X419105D01*
X419049Y335556D01*
Y364000D01*
X418855Y364976D01*
X418302Y365802D01*
X417476Y366355D01*
X416500Y366549D01*
X415524Y366355D01*
X414698Y365802D01*
X414145Y364976D01*
X413951Y364000D01*
Y335500D01*
X401500D01*
X400860Y335500D01*
X399604Y335750D01*
X398421Y336240D01*
X397356Y336951D01*
X396451Y337856D01*
X395740Y338921D01*
X395250Y340104D01*
X395000Y341360D01*
X395000Y342000D01*
X395000Y388000D01*
X395000D01*
X395000Y388000D01*
X394954Y388931D01*
X394591Y390758D01*
X393878Y392478D01*
X392844Y394027D01*
X391527Y395344D01*
X389978Y396378D01*
X388258Y397091D01*
X386431Y397454D01*
X385500Y397500D01*
X224500Y397500D01*
X224500Y397500D01*
X223520Y397452D01*
X221597Y397069D01*
X219786Y396319D01*
X218156Y395230D01*
X216770Y393844D01*
X215681Y392214D01*
X214931Y390403D01*
X214548Y388480D01*
X214500Y387500D01*
X214500Y278000D01*
X214500Y278000D01*
X214500Y277409D01*
X214269Y276250D01*
X213817Y275158D01*
X213160Y274175D01*
X212325Y273340D01*
X211342Y272683D01*
X210250Y272231D01*
X209091Y272000D01*
X208500Y272000D01*
X205000D01*
X205000Y272000D01*
X204265Y271964D01*
X202823Y271677D01*
X201465Y271114D01*
X200242Y270298D01*
X199202Y269258D01*
X198386Y268035D01*
X197823Y266677D01*
X197536Y265235D01*
X197500Y264500D01*
Y244500D01*
X197500Y225500D01*
X197543Y224618D01*
X197887Y222887D01*
X198563Y221257D01*
X199543Y219790D01*
X200790Y218543D01*
X202257Y217563D01*
X203887Y216887D01*
X205618Y216543D01*
X206500Y216500D01*
X297000D01*
X297686Y216534D01*
X299032Y216801D01*
X300300Y217326D01*
X301441Y218089D01*
X302411Y219059D01*
X303173Y220200D01*
X303699Y221468D01*
X303966Y222814D01*
X304000Y223500D01*
X304000Y226029D01*
X304000Y226500D01*
X304000Y226500D01*
X304000Y226500D01*
X304000Y226500D01*
X304000Y226997D01*
X304380Y227916D01*
X305084Y228620D01*
X306003Y229000D01*
X306500Y229000D01*
X336001Y229000D01*
X336001Y229000D01*
X336001Y229000D01*
X336001D01*
X336462Y228974D01*
X337133Y228695D01*
X337696Y228133D01*
X338000Y227398D01*
X338000Y227000D01*
X338000Y220500D01*
X338019Y220108D01*
X338172Y219339D01*
X338472Y218614D01*
X338908Y217962D01*
X339462Y217408D01*
X340114Y216972D01*
X340839Y216672D01*
X341608Y216519D01*
X342000Y216500D01*
X365197D01*
Y214465D01*
X365382Y213537D01*
X365908Y212750D01*
X366694Y212225D01*
X367622Y212040D01*
X370378D01*
X371306Y212225D01*
X372092Y212750D01*
X372618Y213537D01*
X372802Y214465D01*
Y216500D01*
X425834D01*
X426025Y216038D01*
X401522Y191534D01*
X298675D01*
X298089Y191984D01*
X296840Y192502D01*
X295500Y192678D01*
X294160Y192502D01*
X292911Y191984D01*
X291839Y191162D01*
X291016Y190089D01*
X290498Y188840D01*
X290322Y187500D01*
X290498Y186160D01*
X291016Y184911D01*
X291839Y183838D01*
X292911Y183016D01*
X294160Y182498D01*
X295500Y182322D01*
X296840Y182498D01*
X298089Y183016D01*
X298675Y183466D01*
X403193D01*
X403193Y183466D01*
X404237Y183603D01*
X405210Y184006D01*
X406046Y184647D01*
X434546Y213147D01*
X434546Y213147D01*
X435187Y213983D01*
X435590Y214956D01*
X435727Y216000D01*
X435727Y216000D01*
Y216500D01*
X441000D01*
X442210Y216540D01*
X444609Y216855D01*
X446947Y217482D01*
X449182Y218408D01*
X451278Y219618D01*
X453198Y221091D01*
X454909Y222802D01*
X456382Y224722D01*
X457592Y226818D01*
X458518Y229053D01*
X459144Y231391D01*
X459460Y233790D01*
X459500Y235000D01*
X459500Y262529D01*
X459500Y263000D01*
X459500Y263000D01*
X459500Y263000D01*
X459500Y263000D01*
X459500Y263640D01*
X459750Y264896D01*
X460240Y266079D01*
X460951Y267144D01*
X461856Y268049D01*
X462921Y268760D01*
X464104Y269250D01*
X465360Y269500D01*
X466000Y269500D01*
X487500Y269500D01*
X487500Y269500D01*
X487500Y269500D01*
X487504D01*
X487963Y269496D01*
X488813Y269327D01*
X489632Y268988D01*
X490369Y268495D01*
X490995Y267869D01*
X491488Y267132D01*
X491827Y266313D01*
X492000Y265443D01*
X492000Y265000D01*
X492000Y200062D01*
X491529Y199894D01*
X491212Y200280D01*
X489572Y201920D01*
X487779Y203392D01*
X485851Y204680D01*
X483805Y205773D01*
X481663Y206661D01*
X479443Y207334D01*
X477169Y207786D01*
X474861Y208014D01*
X472541D01*
X470233Y207786D01*
X467959Y207334D01*
X465739Y206661D01*
X463597Y205773D01*
X461551Y204680D01*
X459623Y203392D01*
X457830Y201920D01*
X456190Y200280D01*
X454719Y198487D01*
X453430Y196559D01*
X452337Y194514D01*
X451449Y192371D01*
X450776Y190152D01*
X450324Y187877D01*
X450096Y185569D01*
Y183250D01*
X450324Y180941D01*
X450776Y178667D01*
X451449Y176447D01*
X452337Y174305D01*
X453430Y172259D01*
X454719Y170331D01*
X456190Y168538D01*
X457728Y167000D01*
X457584Y166500D01*
X175490Y166500D01*
X175347Y167000D01*
X176885Y168538D01*
X178356Y170331D01*
X179645Y172259D01*
X180738Y174305D01*
X181626Y176447D01*
X182299Y178667D01*
X182751Y180941D01*
X182979Y183250D01*
Y185569D01*
X182751Y187877D01*
X182299Y190152D01*
X181626Y192371D01*
X180738Y194514D01*
X179645Y196559D01*
X178356Y198487D01*
X176885Y200280D01*
X175245Y201920D01*
X173452Y203392D01*
X171524Y204680D01*
X169478Y205773D01*
X167336Y206661D01*
X165116Y207334D01*
X162842Y207786D01*
X160534Y208014D01*
X158214D01*
X155906Y207786D01*
X153632Y207334D01*
X151412Y206661D01*
X149270Y205773D01*
X147224Y204680D01*
X145296Y203392D01*
X143503Y201920D01*
X141863Y200280D01*
X140971Y199193D01*
X140500Y199361D01*
X140500Y405048D01*
X140971Y405216D01*
X141863Y404129D01*
X143503Y402489D01*
X145296Y401018D01*
X147224Y399729D01*
X149270Y398636D01*
X151412Y397748D01*
X153632Y397075D01*
X155906Y396623D01*
X158214Y396395D01*
X160534D01*
X162842Y396623D01*
X165116Y397075D01*
X167336Y397748D01*
X169478Y398636D01*
X171524Y399729D01*
X173452Y401018D01*
X175245Y402489D01*
X176885Y404129D01*
X178356Y405922D01*
X179645Y407850D01*
X180738Y409896D01*
X181626Y412038D01*
X182299Y414258D01*
X182751Y416532D01*
X182979Y418840D01*
Y421160D01*
X182751Y423468D01*
X182299Y425742D01*
X181626Y427962D01*
X180738Y430104D01*
X179645Y432150D01*
X178356Y434078D01*
X176885Y435871D01*
X176218Y436538D01*
X176409Y437000D01*
X214500Y437000D01*
D02*
G37*
G36*
X488500Y313500D02*
X488500Y313500D01*
X488504D01*
X488963Y313496D01*
X489813Y313327D01*
X490632Y312988D01*
X491369Y312495D01*
X491995Y311869D01*
X492488Y311132D01*
X492827Y310313D01*
X493000Y309443D01*
X493000Y309000D01*
X493000Y275000D01*
X493000Y275000D01*
Y274602D01*
X492696Y273867D01*
X492133Y273305D01*
X491398Y273000D01*
X491000D01*
X455743Y273000D01*
X454646D01*
X452465Y273215D01*
X450314Y273643D01*
X448216Y274279D01*
X446191Y275118D01*
X444257Y276151D01*
X442434Y277369D01*
X440740Y278760D01*
X439964Y279536D01*
X435727Y283773D01*
Y300807D01*
X435727Y300807D01*
X435590Y301851D01*
X435187Y302824D01*
X434546Y303660D01*
X425206Y313000D01*
X425413Y313500D01*
X433895D01*
X445698Y301698D01*
X446524Y301145D01*
X447500Y300951D01*
X448476Y301145D01*
X449302Y301698D01*
X449855Y302524D01*
X450049Y303500D01*
X449855Y304475D01*
X449302Y305302D01*
X441567Y313038D01*
X441758Y313500D01*
X488500D01*
X488500Y313500D01*
D02*
G37*
G36*
X244500Y305520D02*
X240000D01*
X239610Y305442D01*
X239279Y305221D01*
X239058Y304890D01*
X238980Y304500D01*
Y301500D01*
X239058Y301110D01*
X239279Y300779D01*
X239610Y300558D01*
X240000Y300480D01*
X244500Y300480D01*
Y251000D01*
X218500D01*
Y346000D01*
X244500D01*
Y305520D01*
D02*
G37*
G36*
X322000Y354500D02*
X322019Y354108D01*
X322172Y353339D01*
X322472Y352614D01*
X322908Y351962D01*
X323462Y351408D01*
X324114Y350972D01*
X324839Y350672D01*
X325608Y350519D01*
X326000Y350500D01*
X351000Y350500D01*
X351886Y350500D01*
X353625Y350154D01*
X355263Y349476D01*
X356737Y348491D01*
X357991Y347237D01*
X358976Y345763D01*
X359654Y344125D01*
X360000Y342386D01*
X360000Y341500D01*
X360000D01*
X360000Y341500D01*
X360000Y242000D01*
X360000Y241246D01*
X359803Y239752D01*
X359413Y238295D01*
X358836Y236903D01*
X358082Y235597D01*
X357165Y234401D01*
X356099Y233335D01*
X354903Y232417D01*
X353597Y231664D01*
X352204Y231087D01*
X350748Y230697D01*
X349254Y230500D01*
X348500Y230500D01*
X302500D01*
Y239000D01*
X315000Y239000D01*
X315787Y239025D01*
X317349Y239223D01*
X318874Y239615D01*
X320337Y240197D01*
X321716Y240957D01*
X322988Y241885D01*
X324133Y242966D01*
X325134Y244182D01*
X325973Y245514D01*
X326639Y246941D01*
X327120Y248440D01*
X327408Y249988D01*
X327479Y250772D01*
X327515Y251341D01*
X327503Y252480D01*
X327379Y253612D01*
X327145Y254727D01*
X326803Y255813D01*
X326356Y256861D01*
X325809Y257860D01*
X325166Y258800D01*
X324811Y259245D01*
X324322Y259658D01*
X323285Y260408D01*
X322181Y261053D01*
X321018Y261587D01*
X319809Y262005D01*
X318564Y262301D01*
X317297Y262475D01*
X316018Y262523D01*
X315379Y262500D01*
X315379Y262500D01*
X315379Y262500D01*
X310600Y262500D01*
X309462D01*
X307195Y262723D01*
X304962Y263168D01*
X302783Y263828D01*
X300679Y264700D01*
X298670Y265774D01*
X296777Y267039D01*
X295017Y268483D01*
X294211Y269288D01*
Y269288D01*
X272435Y291065D01*
X271168Y292271D01*
X268466Y294489D01*
X265559Y296431D01*
X262475Y298079D01*
X259245Y299417D01*
X255899Y300432D01*
X252470Y301114D01*
X248991Y301457D01*
X247243Y301500D01*
X247243Y301500D01*
X247243Y301500D01*
X240000Y301500D01*
Y304500D01*
X248527D01*
X250076Y304547D01*
X253150Y304922D01*
X256157Y305667D01*
X259051Y306770D01*
X261790Y308216D01*
X264333Y309983D01*
X266644Y312045D01*
X268689Y314371D01*
X269601Y315623D01*
X287330Y341568D01*
X287954Y342482D01*
X289394Y344165D01*
X291006Y345684D01*
X292772Y347019D01*
X294672Y348157D01*
X296683Y349084D01*
X298783Y349788D01*
X300946Y350262D01*
X302047Y350381D01*
Y350381D01*
X302346Y350427D01*
X302925Y350601D01*
X303463Y350876D01*
X303941Y351245D01*
X304345Y351695D01*
X304660Y352210D01*
X304876Y352775D01*
X304986Y353369D01*
X305000Y353671D01*
X305000D01*
X305000Y364500D01*
X322000Y364500D01*
X322000Y354500D01*
D02*
G37*
%LPC*%
G36*
X155148Y376706D02*
X151309D01*
X150547Y376606D01*
X149837Y376312D01*
X149227Y375844D01*
X148759Y375234D01*
X148465Y374524D01*
X148365Y373762D01*
Y369923D01*
X148465Y369161D01*
X148759Y368451D01*
X149227Y367841D01*
X149837Y367373D01*
X150547Y367079D01*
X151309Y366979D01*
X155148D01*
X155910Y367079D01*
X156620Y367373D01*
X157230Y367841D01*
X157698Y368451D01*
X157992Y369161D01*
X158092Y369923D01*
Y373762D01*
X157992Y374524D01*
X157698Y375234D01*
X157230Y375844D01*
X156620Y376312D01*
X155910Y376606D01*
X155148Y376706D01*
D02*
G37*
G36*
X163500Y316385D02*
X162417Y316243D01*
X161407Y315825D01*
X160540Y315160D01*
X159875Y314293D01*
X159457Y313283D01*
X159315Y312200D01*
X159457Y311117D01*
X159875Y310107D01*
X160540Y309241D01*
X161407Y308575D01*
X162417Y308157D01*
X163500Y308015D01*
X164583Y308157D01*
X165593Y308575D01*
X166460Y309241D01*
X167125Y310107D01*
X167543Y311117D01*
X167685Y312200D01*
X167543Y313283D01*
X167125Y314293D01*
X166460Y315160D01*
X165593Y315825D01*
X164583Y316243D01*
X163500Y316385D01*
D02*
G37*
G36*
Y306385D02*
X162417Y306243D01*
X161407Y305825D01*
X160540Y305159D01*
X159875Y304293D01*
X159457Y303283D01*
X159315Y302200D01*
X159457Y301117D01*
X159875Y300107D01*
X160540Y299240D01*
X161407Y298575D01*
X162417Y298157D01*
X163500Y298015D01*
X164583Y298157D01*
X165593Y298575D01*
X166460Y299240D01*
X167125Y300107D01*
X167543Y301117D01*
X167685Y302200D01*
X167543Y303283D01*
X167125Y304293D01*
X166460Y305159D01*
X165593Y305825D01*
X164583Y306243D01*
X163500Y306385D01*
D02*
G37*
G36*
Y296385D02*
X162417Y296243D01*
X161407Y295825D01*
X160540Y295160D01*
X159875Y294293D01*
X159457Y293283D01*
X159315Y292200D01*
X159457Y291117D01*
X159875Y290107D01*
X160540Y289241D01*
X161407Y288575D01*
X162417Y288157D01*
X163500Y288015D01*
X164583Y288157D01*
X165593Y288575D01*
X166460Y289241D01*
X167125Y290107D01*
X167543Y291117D01*
X167685Y292200D01*
X167543Y293283D01*
X167125Y294293D01*
X166460Y295160D01*
X165593Y295825D01*
X164583Y296243D01*
X163500Y296385D01*
D02*
G37*
G36*
X155148Y257106D02*
X151309D01*
X150547Y257006D01*
X149837Y256712D01*
X149227Y256244D01*
X148759Y255634D01*
X148465Y254924D01*
X148365Y254162D01*
Y250323D01*
X148465Y249561D01*
X148759Y248851D01*
X149227Y248241D01*
X149837Y247773D01*
X150547Y247479D01*
X151309Y247379D01*
X155148D01*
X155910Y247479D01*
X156620Y247773D01*
X157230Y248241D01*
X157698Y248851D01*
X157992Y249561D01*
X158092Y250323D01*
Y254162D01*
X157992Y254924D01*
X157698Y255634D01*
X157230Y256244D01*
X156620Y256712D01*
X155910Y257006D01*
X155148Y257106D01*
D02*
G37*
G36*
X435646Y199953D02*
X427740D01*
Y192047D01*
X435646D01*
Y199953D01*
D02*
G37*
G36*
X249500Y192678D02*
X248160Y192502D01*
X246911Y191984D01*
X245838Y191162D01*
X245016Y190089D01*
X244498Y188840D01*
X244322Y187500D01*
X244498Y186160D01*
X245016Y184911D01*
X245838Y183838D01*
X246911Y183016D01*
X248160Y182498D01*
X249500Y182322D01*
X250840Y182498D01*
X252089Y183016D01*
X253162Y183838D01*
X253984Y184911D01*
X254502Y186160D01*
X254678Y187500D01*
X254502Y188840D01*
X253984Y190089D01*
X253162Y191162D01*
X252089Y191984D01*
X250840Y192502D01*
X249500Y192678D01*
D02*
G37*
%LPD*%
D46*
X416500Y334500D02*
X447500Y303500D01*
X416500Y334500D02*
Y364000D01*
D47*
X153228Y371843D02*
D03*
X478772Y264657D02*
D03*
X153228Y252242D02*
D03*
D48*
Y352157D02*
D03*
X478772Y284343D02*
D03*
X153228Y232558D02*
D03*
D49*
X295500Y187500D02*
D03*
X272500D02*
D03*
X249500D02*
D03*
D50*
X431693Y196000D02*
D03*
D51*
Y206000D02*
D03*
Y216000D02*
D03*
D52*
X369000Y388500D02*
D03*
X369000Y215843D02*
D03*
D53*
X369000Y408185D02*
D03*
X369000Y196158D02*
D03*
D54*
X388685Y302200D02*
D03*
X349315D02*
D03*
D55*
X153500Y312200D02*
D03*
X479500Y352000D02*
D03*
D56*
X163500Y312200D02*
D03*
X153500Y302200D02*
D03*
X163500D02*
D03*
X153500Y292200D02*
D03*
X163500D02*
D03*
X469500Y372000D02*
D03*
X479500D02*
D03*
X469500Y362000D02*
D03*
X479500D02*
D03*
X469500Y352000D02*
D03*
D57*
X473701Y420000D02*
D03*
Y184409D02*
D03*
X159374Y184409D02*
D03*
Y420000D02*
D03*
D58*
X310000Y380000D02*
D03*
Y244500D02*
D03*
D59*
Y370000D02*
D03*
Y360000D02*
D03*
Y234500D02*
D03*
Y224500D02*
D03*
D60*
X297500Y334000D02*
D03*
X302500D02*
D03*
X322500D02*
D03*
X327500D02*
D03*
X317500D02*
D03*
X312500D02*
D03*
X307500D02*
D03*
X292500D02*
D03*
X402000Y330500D02*
D03*
Y325500D02*
D03*
X387000Y285000D02*
D03*
Y280000D02*
D03*
X392000Y285000D02*
D03*
Y280000D02*
D03*
X397000D02*
D03*
Y285000D02*
D03*
X387000Y260000D02*
D03*
Y265000D02*
D03*
X397000Y260000D02*
D03*
X392000D02*
D03*
Y265000D02*
D03*
X397000D02*
D03*
Y275000D02*
D03*
X392000D02*
D03*
Y270000D02*
D03*
X397000D02*
D03*
X387000Y275000D02*
D03*
Y270000D02*
D03*
Y255000D02*
D03*
X397000D02*
D03*
X392000D02*
D03*
X397000Y250000D02*
D03*
X392000D02*
D03*
Y245000D02*
D03*
X397000D02*
D03*
X387000Y250000D02*
D03*
Y245000D02*
D03*
X402000Y305000D02*
D03*
X407000D02*
D03*
X402000Y245000D02*
D03*
Y250000D02*
D03*
X412000Y245000D02*
D03*
X407000D02*
D03*
Y250000D02*
D03*
X412000D02*
D03*
X417000D02*
D03*
X407000Y255000D02*
D03*
X412000D02*
D03*
X417000D02*
D03*
X402000D02*
D03*
Y270000D02*
D03*
Y275000D02*
D03*
X417000Y270000D02*
D03*
X412000D02*
D03*
X407000D02*
D03*
Y275000D02*
D03*
X412000D02*
D03*
X417000D02*
D03*
Y265000D02*
D03*
X412000D02*
D03*
X407000D02*
D03*
Y260000D02*
D03*
X412000D02*
D03*
X417000D02*
D03*
X402000Y265000D02*
D03*
Y260000D02*
D03*
X412000Y300000D02*
D03*
X417000D02*
D03*
X412000Y285000D02*
D03*
Y280000D02*
D03*
Y290000D02*
D03*
Y295000D02*
D03*
X417000D02*
D03*
Y290000D02*
D03*
Y285000D02*
D03*
Y280000D02*
D03*
X407000D02*
D03*
Y285000D02*
D03*
Y290000D02*
D03*
Y295000D02*
D03*
X402000D02*
D03*
Y290000D02*
D03*
Y280000D02*
D03*
Y285000D02*
D03*
X407000Y300000D02*
D03*
X402000D02*
D03*
X287500Y284000D02*
D03*
X327500Y274000D02*
D03*
X307500Y279000D02*
D03*
Y274000D02*
D03*
Y284000D02*
D03*
X322500D02*
D03*
X327500D02*
D03*
X317500D02*
D03*
X312500D02*
D03*
X322500Y279000D02*
D03*
X327500D02*
D03*
X317500D02*
D03*
X312500D02*
D03*
X322500Y274000D02*
D03*
X317500D02*
D03*
X312500D02*
D03*
X302500D02*
D03*
Y279000D02*
D03*
Y284000D02*
D03*
X297500D02*
D03*
Y274000D02*
D03*
Y279000D02*
D03*
X292500Y284000D02*
D03*
Y279000D02*
D03*
X287500Y329000D02*
D03*
X282500Y314000D02*
D03*
Y309000D02*
D03*
Y319000D02*
D03*
Y324000D02*
D03*
X287500D02*
D03*
Y319000D02*
D03*
Y314000D02*
D03*
Y309000D02*
D03*
X292500Y324000D02*
D03*
Y319000D02*
D03*
Y309000D02*
D03*
Y314000D02*
D03*
Y329000D02*
D03*
Y294000D02*
D03*
Y289000D02*
D03*
Y299000D02*
D03*
Y304000D02*
D03*
X287500Y289000D02*
D03*
Y294000D02*
D03*
Y299000D02*
D03*
Y304000D02*
D03*
X282500D02*
D03*
Y299000D02*
D03*
Y289000D02*
D03*
Y294000D02*
D03*
X297500D02*
D03*
Y289000D02*
D03*
Y299000D02*
D03*
Y304000D02*
D03*
X302500D02*
D03*
Y299000D02*
D03*
Y294000D02*
D03*
Y289000D02*
D03*
X312500D02*
D03*
X317500D02*
D03*
X322500D02*
D03*
X312500Y294000D02*
D03*
X317500D02*
D03*
X327500D02*
D03*
X322500D02*
D03*
X312500Y299000D02*
D03*
X317500D02*
D03*
X327500D02*
D03*
X322500D02*
D03*
X312500Y304000D02*
D03*
X317500D02*
D03*
X327500D02*
D03*
X322500D02*
D03*
X307500D02*
D03*
Y299000D02*
D03*
Y289000D02*
D03*
Y294000D02*
D03*
X327500Y289000D02*
D03*
Y309000D02*
D03*
X307500Y329000D02*
D03*
X312500D02*
D03*
X317500D02*
D03*
X327500D02*
D03*
X322500D02*
D03*
X307500Y314000D02*
D03*
Y309000D02*
D03*
Y319000D02*
D03*
Y324000D02*
D03*
X322500D02*
D03*
X327500D02*
D03*
X317500D02*
D03*
X312500D02*
D03*
X322500Y319000D02*
D03*
X327500D02*
D03*
X317500D02*
D03*
X312500D02*
D03*
X322500Y314000D02*
D03*
X327500D02*
D03*
X317500D02*
D03*
X312500D02*
D03*
X322500Y309000D02*
D03*
X317500D02*
D03*
X312500D02*
D03*
X302500D02*
D03*
Y314000D02*
D03*
Y319000D02*
D03*
Y324000D02*
D03*
X297500D02*
D03*
Y319000D02*
D03*
Y309000D02*
D03*
Y314000D02*
D03*
X302500Y329000D02*
D03*
X297500D02*
D03*
X447500Y308500D02*
D03*
X452500D02*
D03*
X447500Y293500D02*
D03*
Y288500D02*
D03*
Y298500D02*
D03*
Y303500D02*
D03*
X452500D02*
D03*
Y298500D02*
D03*
Y293500D02*
D03*
Y288500D02*
D03*
X462500D02*
D03*
X467500D02*
D03*
X472500D02*
D03*
X462500Y293500D02*
D03*
X467500D02*
D03*
X477500D02*
D03*
X472500D02*
D03*
X462500Y298500D02*
D03*
X467500D02*
D03*
X477500D02*
D03*
X472500D02*
D03*
X462500Y303500D02*
D03*
X467500D02*
D03*
X477500D02*
D03*
X472500D02*
D03*
X457500D02*
D03*
Y298500D02*
D03*
Y288500D02*
D03*
Y293500D02*
D03*
X472500Y308500D02*
D03*
X477500D02*
D03*
X467500D02*
D03*
X462500D02*
D03*
X457500D02*
D03*
D61*
X212000Y297500D02*
D03*
X194000Y197500D02*
D03*
X214000D02*
D03*
X407000Y325500D02*
D03*
X408500Y348500D02*
D03*
X221000Y343000D02*
D03*
X226000D02*
D03*
X231000D02*
D03*
X236000D02*
D03*
X241000D02*
D03*
X242000Y259000D02*
D03*
Y254000D02*
D03*
X227000D02*
D03*
X232000D02*
D03*
X237000D02*
D03*
X222000D02*
D03*
X237000Y259000D02*
D03*
X232000D02*
D03*
X227000D02*
D03*
X222000D02*
D03*
X431500Y339000D02*
D03*
X205000Y284500D02*
D03*
Y325500D02*
D03*
X416500Y364000D02*
D03*
D62*
X479201Y425500D02*
D03*
Y414500D02*
D03*
X468201D02*
D03*
Y425500D02*
D03*
X465701Y420000D02*
D03*
X481701D02*
D03*
X473701Y412000D02*
D03*
Y428000D02*
D03*
X479201Y189909D02*
D03*
Y178909D02*
D03*
X468201D02*
D03*
Y189909D02*
D03*
X465701Y184409D02*
D03*
X481701D02*
D03*
X473701Y176409D02*
D03*
Y192409D02*
D03*
X164874Y189909D02*
D03*
Y178909D02*
D03*
X153874D02*
D03*
Y189909D02*
D03*
X151374Y184409D02*
D03*
X167374D02*
D03*
X159374Y176409D02*
D03*
Y192409D02*
D03*
X164874Y425500D02*
D03*
Y414500D02*
D03*
X153874D02*
D03*
Y425500D02*
D03*
X151374Y420000D02*
D03*
X167374D02*
D03*
X159374Y412000D02*
D03*
Y428000D02*
D03*
D63*
X407000Y325500D02*
X431693Y300807D01*
Y216000D02*
Y300807D01*
X403193Y187500D02*
X431693Y216000D01*
X295500Y187500D02*
X403193D01*
M02*
