M48
;Layer_Color=9474304
;FILE_FORMAT=2:4
INCH,TZ
;TYPE=PLATED
T1F00S00C0.0150
T2F00S00C0.0157
T3F00S00C0.0200
T4F00S00C0.0354
T5F00S00C0.0394
T6F00S00C0.0433
T7F00S00C0.0512
T8F00S00C0.0543
T9F00S00C0.0630
T10F00S00C0.1260
%
T01
X47370Y17641
X47920Y17891
X48170Y18441
X47920Y18991
X47370Y19241
X46820Y18991
X46570Y18441
X46820Y17891
X16487Y17891
X16737Y18441
X16487Y18991
X15937Y19241
Y17641
X15387Y17891
X15137Y18441
X15387Y18991
Y41450
X15137Y42000
X15387Y42550
X15937Y42800
X16487Y42550
X16737Y42000
X16487Y41450
X15937Y41200
X46820Y41450
X46570Y42000
X46820Y42550
X47370Y42800
X47920Y42550
X48170Y42000
X47920Y41450
X47370Y41200
T02
X47250Y28850
Y29350
X47750
Y29850
X47250
Y30350
X47750
Y30850
X47250
X46750
Y30350
Y29850
Y29350
Y28850
X46250
Y29350
Y29850
Y30350
X45750
X45250
Y30850
X44750
Y30350
Y29850
Y29350
Y28850
X45250
Y29350
Y29850
X45750
Y29350
Y28850
Y30850
X46250
X41700Y30000
X41200
Y29500
Y29000
Y28500
Y28000
Y27500
Y27000
X41700
Y27500
Y28000
Y28500
Y29000
Y29500
X40700
Y29000
Y28500
Y28000
Y27500
X40200
X39700
Y28000
X39200
X38700
Y28500
X39200
X39700
X40200
Y29000
Y29500
Y30000
Y30500
X40700
Y30000
X40200Y28000
Y27000
X39700
Y26500
Y26000
X39200
X38700
Y26500
X39200
Y27000
Y27500
X38700
Y27000
Y25500
X39200
X39700
Y25000
X39200
Y24500
X39700
X40200
Y25000
X40700
Y24500
X41200
Y25000
X41700
Y25500
X41200
X40700
X40200
Y26000
X40700
Y26500
Y27000
X41200Y26500
X41700
Y26000
X41200
X40200Y26500
X38700Y25000
Y24500
X32750Y27400
Y27900
Y28400
X32250
X31750
X31250
Y27900
X31750
X32250
Y27400
X31750
X31250
Y28900
X31750
X32250
Y29400
X31750
X31250
Y29900
X31750
X32250
X32750
Y29400
Y28900
Y30400
X32250
X31750
X31250
Y30900
X31750
X32250
X32750
X30750
Y30400
X30250
X29750
X29250
Y30900
X28750
X28250
Y30400
X28750
Y29900
X29250
Y29400
Y28900
Y28400
X28750
Y28900
Y29400
X28250
Y29900
Y28900
X29750
Y28400
X30250
X30750
Y27900
Y27400
X30250
Y27900
X29750
Y27400
X29250Y27900
X29750Y29400
Y29900
X30250
Y29400
Y28900
X30750
Y29400
Y29900
X30250Y30900
X29750
Y31400
X29250
X28750
X28250
Y31900
Y32400
X28750
Y32900
X29250
Y33400
X29750
X30250
X30750
Y32900
Y32400
Y31900
Y31400
X30250
Y31900
Y32400
X29750
X29250
Y31900
X28750
X29750
Y32900
X30250
X31250
Y33400
X31750
X32250
X32750
Y32900
X32250
X31750
Y32400
X32250
X32750
Y31900
X32250
X31750
X31250
Y32400
Y31400
X31750
X32250
X32750
X40200Y32550
Y33050
T03
X19400Y19750
X21400
X22200Y25400
X22700
X23200
X23700
X24200
Y25900
X23700
X23200
X22700
X22200
X20500Y28450
X21200Y29750
X20500Y32550
X22100Y34300
X22600
X23100
X23600
X24100
X40850Y34850
X41650Y36400
X43150Y33900
X40700Y32550
T04
X36900Y19616
Y21584
X36900Y38850
Y40819
T05
X43169Y19600
Y20600
Y21600
T06
X34931Y30220
X38869
X16350
Y31220
Y29220
X15350
Y30220
Y31220
X46950Y35200
Y36200
Y37200
X47950
Y36200
Y35200
T07
X47877Y26466
Y28434
X15323Y25224
Y23256
Y35216
Y37184
T08
X31000Y22450
Y23450
Y24450
Y36000
Y37000
Y38000
T09
X24950Y18750
X27250
X29550
T10
X47370Y18441
X15937Y18441
Y42000
X47370
M30
