G04*
G04 #@! TF.GenerationSoftware,Altium Limited,Altium Designer,21.1.1 (26)*
G04*
G04 Layer_Physical_Order=1*
G04 Layer_Color=255*
%FSLAX25Y25*%
%MOIN*%
G70*
G04*
G04 #@! TF.SameCoordinates,71F490B5-E471-4577-894E-B108FF22964F*
G04*
G04*
G04 #@! TF.FilePolarity,Positive*
G04*
G01*
G75*
%ADD17R,0.02559X0.06004*%
%ADD18R,0.05118X0.03543*%
%ADD19R,0.03543X0.05118*%
%ADD20R,0.04724X0.04331*%
%ADD21R,0.04291X0.04370*%
%ADD22R,0.06004X0.02559*%
%ADD45C,0.02000*%
%ADD46C,0.03000*%
G04:AMPARAMS|DCode=47|XSize=76.77mil|YSize=76.77mil|CornerRadius=19.19mil|HoleSize=0mil|Usage=FLASHONLY|Rotation=270.000|XOffset=0mil|YOffset=0mil|HoleType=Round|Shape=RoundedRectangle|*
%AMROUNDEDRECTD47*
21,1,0.07677,0.03839,0,0,270.0*
21,1,0.03839,0.07677,0,0,270.0*
1,1,0.03839,-0.01919,-0.01919*
1,1,0.03839,-0.01919,0.01919*
1,1,0.03839,0.01919,0.01919*
1,1,0.03839,0.01919,-0.01919*
%
%ADD47ROUNDEDRECTD47*%
%ADD48C,0.07677*%
%ADD49C,0.08268*%
%ADD50R,0.05906X0.05906*%
%ADD51C,0.05906*%
G04:AMPARAMS|DCode=52|XSize=55.12mil|YSize=55.12mil|CornerRadius=13.78mil|HoleSize=0mil|Usage=FLASHONLY|Rotation=270.000|XOffset=0mil|YOffset=0mil|HoleType=Round|Shape=RoundedRectangle|*
%AMROUNDEDRECTD52*
21,1,0.05512,0.02756,0,0,270.0*
21,1,0.02756,0.05512,0,0,270.0*
1,1,0.02756,-0.01378,-0.01378*
1,1,0.02756,-0.01378,0.01378*
1,1,0.02756,0.01378,0.01378*
1,1,0.02756,0.01378,-0.01378*
%
%ADD52ROUNDEDRECTD52*%
%ADD53C,0.05512*%
%ADD54C,0.06496*%
G04:AMPARAMS|DCode=55|XSize=62.99mil|YSize=62.99mil|CornerRadius=15.75mil|HoleSize=0mil|Usage=FLASHONLY|Rotation=270.000|XOffset=0mil|YOffset=0mil|HoleType=Round|Shape=RoundedRectangle|*
%AMROUNDEDRECTD55*
21,1,0.06299,0.03150,0,0,270.0*
21,1,0.03150,0.06299,0,0,270.0*
1,1,0.03150,-0.01575,-0.01575*
1,1,0.03150,-0.01575,0.01575*
1,1,0.03150,0.01575,0.01575*
1,1,0.03150,0.01575,-0.01575*
%
%ADD55ROUNDEDRECTD55*%
%ADD56C,0.06299*%
%ADD57C,0.19685*%
%ADD58R,0.08150X0.08150*%
%ADD59C,0.08150*%
%ADD60C,0.03150*%
%ADD61C,0.03000*%
%ADD62C,0.02362*%
G36*
X457357Y437038D02*
X456190Y435871D01*
X454719Y434078D01*
X453430Y432150D01*
X452337Y430104D01*
X451449Y427962D01*
X450776Y425742D01*
X450324Y423468D01*
X450096Y421160D01*
Y418840D01*
X450324Y416532D01*
X450776Y414258D01*
X451449Y412038D01*
X452337Y409896D01*
X453430Y407850D01*
X454719Y405922D01*
X456190Y404129D01*
X457830Y402489D01*
X459623Y401018D01*
X461551Y399729D01*
X463597Y398636D01*
X465739Y397748D01*
X467959Y397075D01*
X470233Y396623D01*
X472541Y396395D01*
X474861D01*
X477169Y396623D01*
X479443Y397075D01*
X481663Y397748D01*
X483805Y398636D01*
X485851Y399729D01*
X487779Y401018D01*
X489572Y402489D01*
X491212Y404129D01*
X492683Y405922D01*
X493021Y406428D01*
X493500Y406283D01*
Y365500D01*
X481737D01*
X481102Y365867D01*
X480046Y366150D01*
X478954D01*
X477898Y365867D01*
X477263Y365500D01*
X471737D01*
X471102Y365867D01*
X470046Y366150D01*
X468954D01*
X467898Y365867D01*
X467263Y365500D01*
X419049D01*
Y366941D01*
X419272D01*
Y374059D01*
X413728D01*
Y366941D01*
X413951D01*
Y365500D01*
X411049D01*
Y375273D01*
X413227Y377451D01*
X413728D01*
Y376441D01*
X419272D01*
Y383559D01*
X413728D01*
Y382549D01*
X412172D01*
X411196Y382355D01*
X410369Y381802D01*
X406698Y378131D01*
X406145Y377304D01*
X405951Y376328D01*
Y365500D01*
X303500D01*
Y374500D01*
X317000D01*
X317000Y394500D01*
X317000D01*
X317000Y394500D01*
X316961Y395284D01*
X316655Y396822D01*
X316055Y398271D01*
X315184Y399575D01*
X314075Y400684D01*
X312771Y401555D01*
X311322Y402155D01*
X309784Y402461D01*
X309000Y402500D01*
X253000Y402500D01*
X253000Y402500D01*
X252020Y402452D01*
X250097Y402069D01*
X248286Y401319D01*
X246656Y400230D01*
X245270Y398844D01*
X244181Y397214D01*
X243431Y395403D01*
X243048Y393480D01*
X243000Y392500D01*
X243000Y375000D01*
X243000Y375000D01*
Y374213D01*
X242795Y372654D01*
X242387Y371134D01*
X241786Y369681D01*
X240999Y368319D01*
X240041Y367071D01*
X238929Y365958D01*
X237681Y365001D01*
X236319Y364214D01*
X234865Y363612D01*
X233346Y363205D01*
X231786Y363000D01*
X141500D01*
Y403798D01*
X142000Y403992D01*
X143503Y402489D01*
X145296Y401018D01*
X147224Y399729D01*
X149270Y398636D01*
X151412Y397748D01*
X153632Y397075D01*
X155906Y396623D01*
X158214Y396395D01*
X160534D01*
X162842Y396623D01*
X165116Y397075D01*
X167336Y397748D01*
X169478Y398636D01*
X171524Y399729D01*
X173452Y401018D01*
X175245Y402489D01*
X176885Y404129D01*
X178356Y405922D01*
X179645Y407850D01*
X180738Y409896D01*
X181626Y412038D01*
X182299Y414258D01*
X182751Y416532D01*
X182979Y418840D01*
Y421160D01*
X182751Y423468D01*
X182299Y425742D01*
X181626Y427962D01*
X180738Y430104D01*
X179645Y432150D01*
X178356Y434078D01*
X176885Y435871D01*
X175718Y437038D01*
X175909Y437500D01*
X457166D01*
X457357Y437038D01*
D02*
G37*
G36*
X417500Y322500D02*
X399000D01*
Y334500D01*
X417500D01*
Y322500D01*
D02*
G37*
G36*
X423000Y254743D02*
X423000Y253587D01*
X422774Y251287D01*
X422323Y249021D01*
X421652Y246809D01*
X420767Y244674D01*
X419678Y242636D01*
X418394Y240714D01*
X416928Y238928D01*
X416111Y238111D01*
X416111Y238111D01*
X416111Y238111D01*
X389328Y211328D01*
X388696Y210697D01*
X387315Y209562D01*
X385828Y208569D01*
X384252Y207727D01*
X382601Y207043D01*
X380890Y206524D01*
X379137Y206175D01*
X377358Y206000D01*
X376465Y206000D01*
X376464Y206000D01*
X376464Y206000D01*
X358000Y206000D01*
X357606Y206000D01*
X356833Y206154D01*
X356105Y206455D01*
X355450Y206893D01*
X354893Y207450D01*
X354455Y208105D01*
X354154Y208833D01*
X354000Y209606D01*
Y210000D01*
X354000Y210000D01*
X354000Y217172D01*
X354000Y217922D01*
X354147Y219416D01*
X354440Y220888D01*
X354876Y222325D01*
X355450Y223712D01*
X356158Y225036D01*
X356992Y226284D01*
X357944Y227444D01*
X358475Y227975D01*
Y227975D01*
X365111Y234611D01*
X366022Y235568D01*
X367699Y237612D01*
X369168Y239809D01*
X370414Y242141D01*
X371426Y244583D01*
X372193Y247112D01*
X372708Y249705D01*
X372968Y252335D01*
X373000Y253657D01*
X373000Y253657D01*
Y306000D01*
X373000Y306739D01*
X373288Y308188D01*
X373854Y309553D01*
X374674Y310781D01*
X375719Y311826D01*
X376947Y312646D01*
X378312Y313212D01*
X379761Y313500D01*
X380500Y313500D01*
X380500Y313500D01*
X423000Y313500D01*
X423000Y254743D01*
D02*
G37*
G36*
X226500Y311000D02*
X218500D01*
Y346000D01*
X226500D01*
Y311000D01*
D02*
G37*
G36*
X488500Y313500D02*
X488500Y313500D01*
X488504D01*
X488963Y313496D01*
X489813Y313327D01*
X490632Y312988D01*
X491369Y312495D01*
X491995Y311869D01*
X492488Y311132D01*
X492827Y310313D01*
X493000Y309443D01*
X493000Y309000D01*
X493000Y275000D01*
X493000Y275000D01*
Y274602D01*
X492696Y273867D01*
X492133Y273305D01*
X491398Y273000D01*
X491000D01*
X455743Y273000D01*
X454646D01*
X452465Y273215D01*
X450314Y273643D01*
X448216Y274279D01*
X446191Y275118D01*
X444257Y276151D01*
X442434Y277369D01*
X440740Y278760D01*
X439964Y279536D01*
X430475Y289025D01*
X430475Y289025D01*
X429825Y289674D01*
X428660Y291094D01*
X427640Y292621D01*
X426774Y294241D01*
X426071Y295938D01*
X425538Y297695D01*
X425180Y299497D01*
X425000Y301324D01*
X425000Y302243D01*
X425000Y313500D01*
X488500D01*
X488500Y313500D01*
D02*
G37*
G36*
X322000Y354500D02*
X322019Y354108D01*
X322172Y353339D01*
X322472Y352614D01*
X322908Y351962D01*
X323462Y351408D01*
X324114Y350972D01*
X324839Y350672D01*
X325608Y350519D01*
X326000Y350500D01*
X351000Y350500D01*
X351886Y350500D01*
X353625Y350154D01*
X355263Y349476D01*
X356737Y348491D01*
X357991Y347237D01*
X358976Y345763D01*
X359654Y344125D01*
X360000Y342386D01*
X360000Y341500D01*
X360000D01*
X360000Y341500D01*
X360000Y242000D01*
X360000Y241246D01*
X359803Y239752D01*
X359413Y238295D01*
X358836Y236903D01*
X358082Y235597D01*
X357165Y234401D01*
X356099Y233335D01*
X354903Y232417D01*
X353597Y231664D01*
X352204Y231087D01*
X350748Y230697D01*
X349254Y230500D01*
X348500Y230500D01*
X302500D01*
Y239000D01*
X315000Y239000D01*
X315787Y239025D01*
X317349Y239223D01*
X318874Y239615D01*
X320337Y240197D01*
X321716Y240957D01*
X322988Y241885D01*
X324133Y242966D01*
X325134Y244182D01*
X325973Y245514D01*
X326639Y246941D01*
X327120Y248440D01*
X327408Y249988D01*
X327479Y250772D01*
X327515Y251341D01*
X327503Y252480D01*
X327379Y253612D01*
X327145Y254727D01*
X326803Y255813D01*
X326356Y256861D01*
X325809Y257860D01*
X325166Y258800D01*
X324811Y259245D01*
X324322Y259658D01*
X323285Y260408D01*
X322181Y261053D01*
X321018Y261587D01*
X319809Y262005D01*
X318564Y262301D01*
X317297Y262475D01*
X316018Y262523D01*
X315379Y262500D01*
X315379Y262500D01*
X315379Y262500D01*
X310600Y262500D01*
X309462D01*
X307195Y262723D01*
X304962Y263168D01*
X302783Y263828D01*
X300679Y264700D01*
X298670Y265774D01*
X296777Y267039D01*
X295017Y268483D01*
X294211Y269288D01*
Y269288D01*
X272435Y291065D01*
X271168Y292271D01*
X268466Y294489D01*
X265559Y296431D01*
X262475Y298079D01*
X259245Y299417D01*
X255899Y300432D01*
X252470Y301114D01*
X248991Y301457D01*
X247243Y301500D01*
X247243Y301500D01*
X247243Y301500D01*
X240000Y301500D01*
Y304500D01*
X248527D01*
X250076Y304547D01*
X253150Y304922D01*
X256157Y305667D01*
X259051Y306770D01*
X261790Y308216D01*
X264333Y309983D01*
X266644Y312045D01*
X268689Y314371D01*
X269601Y315623D01*
X287330Y341568D01*
X287954Y342482D01*
X289394Y344165D01*
X291006Y345684D01*
X292772Y347019D01*
X294672Y348157D01*
X296683Y349084D01*
X298783Y349788D01*
X300946Y350262D01*
X302047Y350381D01*
Y350381D01*
X302346Y350427D01*
X302925Y350601D01*
X303463Y350876D01*
X303941Y351245D01*
X304345Y351695D01*
X304660Y352210D01*
X304876Y352775D01*
X304986Y353369D01*
X305000Y353671D01*
X305000D01*
X305000Y364480D01*
X322000D01*
X322000Y354500D01*
D02*
G37*
G36*
X244500Y262000D02*
X244500Y209105D01*
X229578Y194183D01*
X227362D01*
Y194799D01*
X220638D01*
Y188469D01*
X227362D01*
Y189085D01*
X230634D01*
X231609Y189279D01*
X232436Y189831D01*
X244250Y201645D01*
X244740Y201548D01*
X244921Y201111D01*
X245611Y200422D01*
X246512Y200049D01*
X246999Y200001D01*
X246999Y200001D01*
X290877Y200018D01*
X292951Y197944D01*
Y191956D01*
X292348Y191608D01*
X291392Y190652D01*
X290716Y189482D01*
X290366Y188176D01*
Y186824D01*
X290716Y185518D01*
X291392Y184348D01*
X292348Y183392D01*
X293518Y182716D01*
X294824Y182366D01*
X296176D01*
X297482Y182716D01*
X298652Y183392D01*
X299608Y184348D01*
X300284Y185518D01*
X300634Y186824D01*
Y188176D01*
X300284Y189482D01*
X299608Y190652D01*
X298652Y191608D01*
X298049Y191956D01*
Y199000D01*
X297945Y199521D01*
X298356Y200021D01*
X367226Y200047D01*
X367360Y199547D01*
X366694Y199163D01*
X365995Y198464D01*
X365500Y197607D01*
X365244Y196652D01*
Y195663D01*
X365500Y194708D01*
X365995Y193851D01*
X366694Y193152D01*
X367550Y192657D01*
X368506Y192402D01*
X369495D01*
X370450Y192657D01*
X371306Y193152D01*
X372006Y193851D01*
X372500Y194708D01*
X372756Y195663D01*
Y196652D01*
X372500Y197607D01*
X372006Y198464D01*
X371306Y199163D01*
X370638Y199549D01*
X370772Y200049D01*
X443146Y200077D01*
X443500Y199723D01*
Y166000D01*
X174892D01*
X174724Y166471D01*
X175245Y166898D01*
X176885Y168538D01*
X178356Y170331D01*
X179645Y172259D01*
X180738Y174305D01*
X181626Y176447D01*
X182299Y178667D01*
X182751Y180941D01*
X182979Y183250D01*
Y185569D01*
X182751Y187877D01*
X182299Y190152D01*
X181626Y192371D01*
X180738Y194514D01*
X179645Y196559D01*
X178356Y198487D01*
X176885Y200280D01*
X175245Y201920D01*
X173452Y203392D01*
X171524Y204680D01*
X169478Y205773D01*
X167336Y206661D01*
X165116Y207334D01*
X162842Y207786D01*
X160534Y208014D01*
X158214D01*
X155906Y207786D01*
X153632Y207334D01*
X151412Y206661D01*
X149270Y205773D01*
X147224Y204680D01*
X145296Y203392D01*
X143503Y201920D01*
X141863Y200280D01*
X140392Y198487D01*
X140305Y198357D01*
X139826Y198501D01*
X139502Y261646D01*
X139855Y262000D01*
X244500Y262000D01*
D02*
G37*
%LPC*%
G36*
X369495Y411941D02*
X368506D01*
X367550Y411685D01*
X366694Y411191D01*
X365995Y410491D01*
X365500Y409635D01*
X365244Y408679D01*
Y407691D01*
X365500Y406735D01*
X365995Y405879D01*
X366694Y405180D01*
X367550Y404685D01*
X368506Y404429D01*
X369495D01*
X370450Y404685D01*
X371306Y405180D01*
X372006Y405879D01*
X372500Y406735D01*
X372756Y407691D01*
Y408679D01*
X372500Y409635D01*
X372006Y410491D01*
X371306Y411191D01*
X370450Y411685D01*
X369495Y411941D01*
D02*
G37*
G36*
X480046Y376150D02*
X478954D01*
X477898Y375867D01*
X476952Y375321D01*
X476180Y374548D01*
X475633Y373602D01*
X475350Y372546D01*
Y371454D01*
X475633Y370398D01*
X476180Y369452D01*
X476952Y368679D01*
X477898Y368133D01*
X478954Y367850D01*
X480046D01*
X481102Y368133D01*
X482048Y368679D01*
X482821Y369452D01*
X483367Y370398D01*
X483650Y371454D01*
Y372546D01*
X483367Y373602D01*
X482821Y374548D01*
X482048Y375321D01*
X481102Y375867D01*
X480046Y376150D01*
D02*
G37*
G36*
X428272Y383559D02*
X422728D01*
Y376441D01*
X422951D01*
Y374059D01*
X422728D01*
Y366941D01*
X428272D01*
Y368820D01*
X466812D01*
X466952Y368679D01*
X467898Y368133D01*
X468954Y367850D01*
X470046D01*
X471102Y368133D01*
X472048Y368679D01*
X472821Y369452D01*
X473367Y370398D01*
X473650Y371454D01*
Y372546D01*
X473367Y373602D01*
X472821Y374548D01*
X472048Y375321D01*
X471102Y375867D01*
X470046Y376150D01*
X468954D01*
X467898Y375867D01*
X466952Y375321D01*
X466180Y374548D01*
X465816Y373918D01*
X428272D01*
Y374059D01*
X428049D01*
Y376441D01*
X428272D01*
Y383559D01*
D02*
G37*
G36*
X153865Y237396D02*
X152591D01*
X151361Y237066D01*
X150257Y236429D01*
X149356Y235528D01*
X148720Y234425D01*
X148390Y233194D01*
Y231921D01*
X148720Y230690D01*
X149356Y229587D01*
X150257Y228686D01*
X151361Y228049D01*
X152591Y227719D01*
X153865D01*
X155096Y228049D01*
X156199Y228686D01*
X157100Y229587D01*
X157737Y230690D01*
X158067Y231921D01*
Y233194D01*
X157737Y234425D01*
X157100Y235528D01*
X156199Y236429D01*
X155096Y237066D01*
X153865Y237396D01*
D02*
G37*
G36*
X214497Y200000D02*
X213503D01*
X212584Y199619D01*
X211881Y198916D01*
X211500Y197997D01*
Y197003D01*
X211881Y196084D01*
X211961Y196004D01*
Y194772D01*
X210441D01*
Y189228D01*
X217559D01*
Y194772D01*
X216039D01*
Y196004D01*
X216119Y196084D01*
X216500Y197003D01*
Y197997D01*
X216119Y198916D01*
X215416Y199619D01*
X214497Y200000D01*
D02*
G37*
G36*
X194497D02*
X193503D01*
X192584Y199619D01*
X191881Y198916D01*
X191500Y197997D01*
Y197003D01*
X191881Y196084D01*
X191961Y196004D01*
Y194772D01*
X190441D01*
Y189228D01*
X197559D01*
Y194772D01*
X196039D01*
Y196004D01*
X196119Y196084D01*
X196500Y197003D01*
Y197997D01*
X196119Y198916D01*
X195416Y199619D01*
X194497Y200000D01*
D02*
G37*
G36*
X227362Y186531D02*
X220638D01*
Y185732D01*
X217559D01*
Y185772D01*
X210441D01*
Y180228D01*
X217559D01*
Y180634D01*
X220638D01*
Y180201D01*
X227362D01*
Y186531D01*
D02*
G37*
G36*
X207362D02*
X200638D01*
Y185732D01*
X197559D01*
Y185772D01*
X190441D01*
Y180228D01*
X197559D01*
Y180634D01*
X200638D01*
Y180201D01*
X207362D01*
Y186531D01*
D02*
G37*
G36*
X273176Y192634D02*
X271824D01*
X270518Y192284D01*
X269348Y191608D01*
X268392Y190652D01*
X267716Y189482D01*
X267366Y188176D01*
Y186824D01*
X267716Y185518D01*
X268392Y184348D01*
X269348Y183392D01*
X270518Y182716D01*
X271824Y182366D01*
X273176D01*
X274482Y182716D01*
X275652Y183392D01*
X276608Y184348D01*
X277284Y185518D01*
X277634Y186824D01*
Y188176D01*
X277284Y189482D01*
X276608Y190652D01*
X275652Y191608D01*
X274482Y192284D01*
X273176Y192634D01*
D02*
G37*
%LPD*%
D17*
X416500Y310323D02*
D03*
X421500D02*
D03*
X426500D02*
D03*
X431500D02*
D03*
Y331677D02*
D03*
X426500D02*
D03*
X421500D02*
D03*
X416500D02*
D03*
D18*
X408500Y331972D02*
D03*
Y341028D02*
D03*
X421500Y348500D02*
D03*
Y339500D02*
D03*
X214000Y192000D02*
D03*
Y183000D02*
D03*
X289500Y253500D02*
D03*
Y244500D02*
D03*
X205000Y320200D02*
D03*
Y311200D02*
D03*
Y290700D02*
D03*
Y299700D02*
D03*
X289500Y389000D02*
D03*
Y380000D02*
D03*
X194000Y192000D02*
D03*
Y183000D02*
D03*
D19*
X420528Y355500D02*
D03*
X411472D02*
D03*
X275500Y244500D02*
D03*
X266500D02*
D03*
X275500Y380000D02*
D03*
X266500D02*
D03*
X244028Y320700D02*
D03*
X234972D02*
D03*
X221528D02*
D03*
X212472D02*
D03*
X416500Y370500D02*
D03*
X425500D02*
D03*
Y380000D02*
D03*
X416500D02*
D03*
D20*
X224000Y183366D02*
D03*
Y191634D02*
D03*
X204000Y183366D02*
D03*
Y191634D02*
D03*
D21*
X221299Y331700D02*
D03*
X233701D02*
D03*
X266299Y391500D02*
D03*
X278701D02*
D03*
X266299Y256000D02*
D03*
X278701D02*
D03*
D22*
X243177Y312700D02*
D03*
Y307700D02*
D03*
Y302700D02*
D03*
Y297700D02*
D03*
X221823D02*
D03*
Y302700D02*
D03*
Y307700D02*
D03*
Y312700D02*
D03*
D45*
X212000Y297500D02*
X212100Y297600D01*
X221723D02*
X221823Y297700D01*
X212100Y297600D02*
X221723D01*
X194000Y192000D02*
Y197500D01*
X214000Y192000D02*
Y197500D01*
X420500Y349272D02*
X421272Y348500D01*
X420500Y355472D02*
X420528Y355500D01*
X421272Y348500D02*
X421500D01*
X420500Y349272D02*
Y355472D01*
X431500Y331677D02*
Y339000D01*
X205000Y284500D02*
Y290700D01*
Y320200D02*
Y325500D01*
X205250Y320450D02*
X212222D01*
X212472Y320700D01*
X205000Y320200D02*
X205250Y320450D01*
X466000Y355500D02*
X469500Y352000D01*
X421528Y355500D02*
X466000D01*
X421500Y331677D02*
Y339500D01*
X286213Y256000D02*
X288713Y253500D01*
X289500D01*
X278701Y256000D02*
X286213D01*
X278701Y391500D02*
X286213D01*
X288713Y389000D01*
X289500D01*
X266400Y380100D02*
Y391400D01*
X266299Y391500D02*
X266400Y391400D01*
Y380100D02*
X266500Y380000D01*
X266299Y256000D02*
X266400Y255900D01*
Y244600D02*
X266500Y244500D01*
X266400Y244600D02*
Y255900D01*
X252800Y297700D02*
X266000Y284500D01*
Y256299D02*
X266299Y256000D01*
X266000Y256299D02*
Y284500D01*
X252700Y307700D02*
X266500Y321500D01*
Y380000D01*
X243177Y297700D02*
X252800D01*
X243177Y307700D02*
X252700D01*
X234972Y305528D02*
X237800Y302700D01*
X243177D01*
X234972Y305528D02*
Y320700D01*
X243748Y312700D02*
X244028Y312980D01*
Y320700D01*
X243177Y312700D02*
X243748D01*
X241300Y331700D02*
X244028Y328972D01*
Y320700D02*
Y328972D01*
X233701Y331700D02*
X241300D01*
X177500Y292200D02*
X185000Y299700D01*
X163500Y292200D02*
X177500D01*
X185000Y299700D02*
X205000D01*
X164000Y311700D02*
X204500D01*
X163500Y312200D02*
X164000Y311700D01*
X204500D02*
X205000Y311200D01*
Y299700D02*
X205787D01*
X208787Y302700D02*
X221823D01*
X205787Y299700D02*
X208787Y302700D01*
X205787Y311200D02*
X209287Y307700D01*
X205000Y311200D02*
X205787D01*
X209287Y307700D02*
X221823D01*
D46*
X408500Y356000D02*
Y376328D01*
Y348500D02*
Y356000D01*
X411972D01*
X412472Y355500D01*
X285000Y209500D02*
X295500Y199000D01*
Y187500D02*
Y199000D01*
X248500Y209500D02*
X285000D01*
X230634Y191634D02*
X248500Y209500D01*
X224000Y191634D02*
X230634D01*
X412172Y380000D02*
X416500D01*
X408500Y376328D02*
X412172Y380000D01*
X408500Y341028D02*
Y348500D01*
X194183Y183183D02*
X203817D01*
X194000Y183000D02*
X194183Y183183D01*
X203817D02*
X204000Y183366D01*
X214183Y183183D02*
X223817D01*
X224000Y183366D01*
X214000Y183000D02*
X214183Y183183D01*
X416500Y364000D02*
Y370500D01*
X416280Y331972D02*
X416500Y331752D01*
Y331677D02*
Y331752D01*
X408500Y331972D02*
X416280D01*
X425500Y371097D02*
Y380000D01*
Y370500D02*
Y371097D01*
X468869Y371369D02*
X469500Y372000D01*
X425772Y371369D02*
X468869D01*
X425500Y371097D02*
X425772Y371369D01*
X289500Y244500D02*
X310000D01*
X275500D02*
X289500D01*
Y380000D02*
X310000D01*
X275500D02*
X289500D01*
X221299Y331700D02*
X221945Y331054D01*
Y329313D02*
Y331054D01*
X221528Y319913D02*
Y321487D01*
X221945Y329313D02*
X222000Y329258D01*
Y321960D02*
Y329258D01*
X221528Y321487D02*
X222000Y321960D01*
X221823Y312700D02*
Y319617D01*
X221528Y319913D02*
X221823Y319617D01*
D47*
X153228Y371843D02*
D03*
X478772Y264657D02*
D03*
X153228Y252242D02*
D03*
D48*
Y352157D02*
D03*
X478772Y284343D02*
D03*
X153228Y232558D02*
D03*
D49*
X295500Y187500D02*
D03*
X272500D02*
D03*
X249500D02*
D03*
D50*
X431693Y196000D02*
D03*
D51*
Y206000D02*
D03*
Y216000D02*
D03*
D52*
X369000Y388500D02*
D03*
X369000Y215843D02*
D03*
D53*
X369000Y408185D02*
D03*
X369000Y196158D02*
D03*
D54*
X388685Y302200D02*
D03*
X349315D02*
D03*
D55*
X153500Y312200D02*
D03*
X479500Y352000D02*
D03*
D56*
X163500Y312200D02*
D03*
X153500Y302200D02*
D03*
X163500D02*
D03*
X153500Y292200D02*
D03*
X163500D02*
D03*
X469500Y372000D02*
D03*
X479500D02*
D03*
X469500Y362000D02*
D03*
X479500D02*
D03*
X469500Y352000D02*
D03*
D57*
X473701Y420000D02*
D03*
Y184409D02*
D03*
X159374Y184409D02*
D03*
Y420000D02*
D03*
D58*
X310000Y380000D02*
D03*
Y244500D02*
D03*
D59*
Y370000D02*
D03*
Y360000D02*
D03*
Y234500D02*
D03*
Y224500D02*
D03*
D60*
X297500Y334000D02*
D03*
X302500D02*
D03*
X322500D02*
D03*
X327500D02*
D03*
X317500D02*
D03*
X312500D02*
D03*
X307500D02*
D03*
X292500D02*
D03*
X402000Y330500D02*
D03*
Y325500D02*
D03*
X387000Y285000D02*
D03*
Y280000D02*
D03*
X392000Y285000D02*
D03*
Y280000D02*
D03*
X397000D02*
D03*
Y285000D02*
D03*
X387000Y260000D02*
D03*
Y265000D02*
D03*
X397000Y260000D02*
D03*
X392000D02*
D03*
Y265000D02*
D03*
X397000D02*
D03*
Y275000D02*
D03*
X392000D02*
D03*
Y270000D02*
D03*
X397000D02*
D03*
X387000Y275000D02*
D03*
Y270000D02*
D03*
Y255000D02*
D03*
X397000D02*
D03*
X392000D02*
D03*
X397000Y250000D02*
D03*
X392000D02*
D03*
Y245000D02*
D03*
X397000D02*
D03*
X387000Y250000D02*
D03*
Y245000D02*
D03*
X402000Y305000D02*
D03*
X407000D02*
D03*
X402000Y245000D02*
D03*
Y250000D02*
D03*
X412000Y245000D02*
D03*
X407000D02*
D03*
Y250000D02*
D03*
X412000D02*
D03*
X417000D02*
D03*
X407000Y255000D02*
D03*
X412000D02*
D03*
X417000D02*
D03*
X402000D02*
D03*
Y270000D02*
D03*
Y275000D02*
D03*
X417000Y270000D02*
D03*
X412000D02*
D03*
X407000D02*
D03*
Y275000D02*
D03*
X412000D02*
D03*
X417000D02*
D03*
Y265000D02*
D03*
X412000D02*
D03*
X407000D02*
D03*
Y260000D02*
D03*
X412000D02*
D03*
X417000D02*
D03*
X402000Y265000D02*
D03*
Y260000D02*
D03*
X412000Y300000D02*
D03*
X417000D02*
D03*
X412000Y285000D02*
D03*
Y280000D02*
D03*
Y290000D02*
D03*
Y295000D02*
D03*
X417000D02*
D03*
Y290000D02*
D03*
Y285000D02*
D03*
Y280000D02*
D03*
X407000D02*
D03*
Y285000D02*
D03*
Y290000D02*
D03*
Y295000D02*
D03*
X402000D02*
D03*
Y290000D02*
D03*
Y280000D02*
D03*
Y285000D02*
D03*
X407000Y300000D02*
D03*
X402000D02*
D03*
X287500Y284000D02*
D03*
X327500Y274000D02*
D03*
X307500Y279000D02*
D03*
Y274000D02*
D03*
Y284000D02*
D03*
X322500D02*
D03*
X327500D02*
D03*
X317500D02*
D03*
X312500D02*
D03*
X322500Y279000D02*
D03*
X327500D02*
D03*
X317500D02*
D03*
X312500D02*
D03*
X322500Y274000D02*
D03*
X317500D02*
D03*
X312500D02*
D03*
X302500D02*
D03*
Y279000D02*
D03*
Y284000D02*
D03*
X297500D02*
D03*
Y274000D02*
D03*
Y279000D02*
D03*
X292500Y284000D02*
D03*
Y279000D02*
D03*
X287500Y329000D02*
D03*
X282500Y314000D02*
D03*
Y309000D02*
D03*
Y319000D02*
D03*
Y324000D02*
D03*
X287500D02*
D03*
Y319000D02*
D03*
Y314000D02*
D03*
Y309000D02*
D03*
X292500Y324000D02*
D03*
Y319000D02*
D03*
Y309000D02*
D03*
Y314000D02*
D03*
Y329000D02*
D03*
Y294000D02*
D03*
Y289000D02*
D03*
Y299000D02*
D03*
Y304000D02*
D03*
X287500Y289000D02*
D03*
Y294000D02*
D03*
Y299000D02*
D03*
Y304000D02*
D03*
X282500D02*
D03*
Y299000D02*
D03*
Y289000D02*
D03*
Y294000D02*
D03*
X297500D02*
D03*
Y289000D02*
D03*
Y299000D02*
D03*
Y304000D02*
D03*
X302500D02*
D03*
Y299000D02*
D03*
Y294000D02*
D03*
Y289000D02*
D03*
X312500D02*
D03*
X317500D02*
D03*
X322500D02*
D03*
X312500Y294000D02*
D03*
X317500D02*
D03*
X327500D02*
D03*
X322500D02*
D03*
X312500Y299000D02*
D03*
X317500D02*
D03*
X327500D02*
D03*
X322500D02*
D03*
X312500Y304000D02*
D03*
X317500D02*
D03*
X327500D02*
D03*
X322500D02*
D03*
X307500D02*
D03*
Y299000D02*
D03*
Y289000D02*
D03*
Y294000D02*
D03*
X327500Y289000D02*
D03*
Y309000D02*
D03*
X307500Y329000D02*
D03*
X312500D02*
D03*
X317500D02*
D03*
X327500D02*
D03*
X322500D02*
D03*
X307500Y314000D02*
D03*
Y309000D02*
D03*
Y319000D02*
D03*
Y324000D02*
D03*
X322500D02*
D03*
X327500D02*
D03*
X317500D02*
D03*
X312500D02*
D03*
X322500Y319000D02*
D03*
X327500D02*
D03*
X317500D02*
D03*
X312500D02*
D03*
X322500Y314000D02*
D03*
X327500D02*
D03*
X317500D02*
D03*
X312500D02*
D03*
X322500Y309000D02*
D03*
X317500D02*
D03*
X312500D02*
D03*
X302500D02*
D03*
Y314000D02*
D03*
Y319000D02*
D03*
Y324000D02*
D03*
X297500D02*
D03*
Y319000D02*
D03*
Y309000D02*
D03*
Y314000D02*
D03*
X302500Y329000D02*
D03*
X297500D02*
D03*
X447500Y308500D02*
D03*
X452500D02*
D03*
X447500Y293500D02*
D03*
Y288500D02*
D03*
Y298500D02*
D03*
Y303500D02*
D03*
X452500D02*
D03*
Y298500D02*
D03*
Y293500D02*
D03*
Y288500D02*
D03*
X462500D02*
D03*
X467500D02*
D03*
X472500D02*
D03*
X462500Y293500D02*
D03*
X467500D02*
D03*
X477500D02*
D03*
X472500D02*
D03*
X462500Y298500D02*
D03*
X467500D02*
D03*
X477500D02*
D03*
X472500D02*
D03*
X462500Y303500D02*
D03*
X467500D02*
D03*
X477500D02*
D03*
X472500D02*
D03*
X457500D02*
D03*
Y298500D02*
D03*
Y288500D02*
D03*
Y293500D02*
D03*
X472500Y308500D02*
D03*
X477500D02*
D03*
X467500D02*
D03*
X462500D02*
D03*
X457500D02*
D03*
D61*
X212000Y297500D02*
D03*
X194000Y197500D02*
D03*
X214000D02*
D03*
X407000Y325500D02*
D03*
X408500Y348500D02*
D03*
X221000Y343000D02*
D03*
X226000D02*
D03*
X231000D02*
D03*
X236000D02*
D03*
X241000D02*
D03*
X242000Y259000D02*
D03*
Y254000D02*
D03*
X227000D02*
D03*
X232000D02*
D03*
X237000D02*
D03*
X222000D02*
D03*
X237000Y259000D02*
D03*
X232000D02*
D03*
X227000D02*
D03*
X222000D02*
D03*
X431500Y339000D02*
D03*
X205000Y284500D02*
D03*
Y325500D02*
D03*
X416500Y364000D02*
D03*
D62*
X479201Y425500D02*
D03*
Y414500D02*
D03*
X468201D02*
D03*
Y425500D02*
D03*
X465701Y420000D02*
D03*
X481701D02*
D03*
X473701Y412000D02*
D03*
Y428000D02*
D03*
X479201Y189909D02*
D03*
Y178909D02*
D03*
X468201D02*
D03*
Y189909D02*
D03*
X465701Y184409D02*
D03*
X481701D02*
D03*
X473701Y176409D02*
D03*
Y192409D02*
D03*
X164874Y189909D02*
D03*
Y178909D02*
D03*
X153874D02*
D03*
Y189909D02*
D03*
X151374Y184409D02*
D03*
X167374D02*
D03*
X159374Y176409D02*
D03*
Y192409D02*
D03*
X164874Y425500D02*
D03*
Y414500D02*
D03*
X153874D02*
D03*
Y425500D02*
D03*
X151374Y420000D02*
D03*
X167374D02*
D03*
X159374Y412000D02*
D03*
Y428000D02*
D03*
M02*
